<?xml version="1.0" encoding="UTF-8" standalone="no"?>
<!-- Generator: Adobe Illustrator 17.1.0, SVG Export Plug-In . SVG Version: 6.00 Build 0)  -->

<svg
   xmlns:dc="http://purl.org/dc/elements/1.1/"
   xmlns:cc="http://creativecommons.org/ns#"
   xmlns:rdf="http://www.w3.org/1999/02/22-rdf-syntax-ns#"
   xmlns:svg="http://www.w3.org/2000/svg"
   xmlns="http://www.w3.org/2000/svg"
   xmlns:sodipodi="http://sodipodi.sourceforge.net/DTD/sodipodi-0.dtd"
   xmlns:inkscape="http://www.inkscape.org/namespaces/inkscape"
   version="1.2"
   x="0px"
   y="0px"
   width="64px"
   height="64px"
   viewBox="0 0 64 64"
   xml:space="preserve"
   id="svg2"
   inkscape:version="0.91 r13725"
   sodipodi:docname="kalender.svg"
   inkscape:export-filename="/usr/people/brouwers/Documents/brouwers/KDC/ZoekenEnFilteren/icons/calendar.png"
   inkscape:export-xdpi="56.25"
   inkscape:export-ydpi="56.25"><metadata
     id="metadata28"><rdf:RDF><cc:Work
         rdf:about=""><dc:format>image/svg+xml</dc:format><dc:type
           rdf:resource="http://purl.org/dc/dcmitype/StillImage" /></cc:Work></rdf:RDF></metadata><defs
     id="defs26" /><sodipodi:namedview
     pagecolor="#ffffff"
     bordercolor="#666666"
     borderopacity="1"
     objecttolerance="10"
     gridtolerance="10"
     guidetolerance="10"
     inkscape:pageopacity="0"
     inkscape:pageshadow="2"
     inkscape:window-width="1008"
     inkscape:window-height="675"
     id="namedview24"
     showgrid="false"
     inkscape:zoom="3.6875"
     inkscape:cx="40.502927"
     inkscape:cy="41.13236"
     inkscape:window-x="0"
     inkscape:window-y="27"
     inkscape:window-maximized="0"
     inkscape:current-layer="svg2" /><g
     id="_x36_4px_Boxes"><rect
       fill="none"
       width="64"
       height="64"
       id="rect5" /></g><g
     id="Production"
     transform="matrix(1.1518644,0,0,1.1518644,-4.859661,-4.859661)"><g
       id="g8"><path
         d="m 55,13 -6.9221,0 -1.7107,5.7498 C 46.2617,19.075 46,18.9751 46,18.9751 L 46,13 45.9926,13 C 45.9781,11.7422 45.9356,9.6533 45.8101,8.8789 45.7012,8.2139 45.5835,7 44.6143,7 L 41.7588,7 C 40.79,7 40.5825,8.228 40.4746,8.8935 40.3491,9.6669 40.1751,11.7462 40.0764,13 l -15.9985,0 -1.7107,5.75 C 22.2617,19.0752 22,18.9751 22,18.9751 L 22,13 21.9926,13 C 21.9781,11.7422 21.9356,9.6533 21.8101,8.8789 21.7012,8.2139 21.5835,7 20.6143,7 L 17.7588,7 C 16.79,7 16.5825,8.228 16.4746,8.8935 16.3491,9.6669 16.1751,11.7462 16.0764,13 L 9,13 c -1.1045,0 -2,0.8955 -2,2 l 0,40 c 0,1.1045 0.8955,2 2,2 l 46,0 c 1.1045,0 2,-0.8955 2,-2 l 0,-40 c 0,-1.1045 -0.8955,-2 -2,-2 z m -3,39 -40,0 0,-26 40,0 0,26 z"
         id="path10"
         inkscape:connector-curvature="0" /><rect
         x="16"
         y="31"
         width="8"
         height="6"
         id="rect12" /><rect
         x="28"
         y="31"
         width="8"
         height="6"
         id="rect14" /><rect
         x="40"
         y="31"
         width="8"
         height="6"
         id="rect16" /><rect
         x="16"
         y="41"
         width="8"
         height="6"
         id="rect18" /><rect
         x="28"
         y="41"
         width="8"
         height="6"
         id="rect20" /><rect
         x="40"
         y="41"
         width="8"
         height="6"
         id="rect22" /></g></g></svg>