<?xml version="1.0" encoding="UTF-8" standalone="no"?>
<!-- Generator: Adobe Illustrator 18.1.0, SVG Export Plug-In . SVG Version: 6.00 Build 0)  -->

<svg
   xmlns:dc="http://purl.org/dc/elements/1.1/"
   xmlns:cc="http://creativecommons.org/ns#"
   xmlns:rdf="http://www.w3.org/1999/02/22-rdf-syntax-ns#"
   xmlns:svg="http://www.w3.org/2000/svg"
   xmlns="http://www.w3.org/2000/svg"
   xmlns:sodipodi="http://sodipodi.sourceforge.net/DTD/sodipodi-0.dtd"
   xmlns:inkscape="http://www.inkscape.org/namespaces/inkscape"
   version="1.2"
   x="0px"
   y="0px"
   width="64px"
   height="64px"
   viewBox="0 0 64 64"
   xml:space="preserve"
   id="svg2"
   inkscape:version="0.91 r13725"
   sodipodi:docname="loep.svg"
   inkscape:export-filename="/usr/people/brouwers/Documents/brouwers/KDC/ZoekenEnFilteren/icons/loep.png"
   inkscape:export-xdpi="56.25"
   inkscape:export-ydpi="56.25"><metadata
     id="metadata26"><rdf:RDF><cc:Work
         rdf:about=""><dc:format>image/svg+xml</dc:format><dc:type
           rdf:resource="http://purl.org/dc/dcmitype/StillImage" /><dc:title /></cc:Work></rdf:RDF></metadata><defs
     id="defs24" /><sodipodi:namedview
     pagecolor="#ffffff"
     bordercolor="#666666"
     borderopacity="1"
     objecttolerance="10"
     gridtolerance="10"
     guidetolerance="10"
     inkscape:pageopacity="0"
     inkscape:pageshadow="2"
     inkscape:window-width="1426"
     inkscape:window-height="824"
     id="namedview22"
     showgrid="false"
     inkscape:zoom="3.6875"
     inkscape:cx="32.542373"
     inkscape:cy="31.59322"
     inkscape:window-x="0"
     inkscape:window-y="27"
     inkscape:window-maximized="0"
     inkscape:current-layer="svg2" /><g
     id="Box"><rect
       fill="none"
       width="64"
       height="64"
       id="rect5" /></g><path
     inkscape:connector-curvature="0"
     id="path4169"
     d="m 41.1996,36.2701 c -2.3177,2.0827 -4.2292,2.8623 -4.718,3.0359 -0.2803,0.0995 -0.4465,0.0338 -0.5031,-0.0891 0.325,-0.2805 2.5176,-2.4482 3.7678,-4.3015 C 41.8438,31.8062 43,28.0305 43,24 43,12.9543 34.0457,4 23,4 11.9543,4 3,12.9543 3,24 c 0,11.0457 8.9543,20 20,20 4.0305,0 7.7753,-1.2026 10.9155,-3.2537 l 17.0283,18.2685 c 1.1622,1.1622 2.9944,1.3178 4.3236,0.3511 1.0001,-0.7274 1.4528,-0.8358 3.0986,-3.0986 0.9667,-1.3292 0.811,-3.1614 -0.3511,-4.3236 L 41.1996,36.2701 Z M 23,38.4186 C 15.0496,38.4186 8.5814,31.9505 8.5814,24 8.5814,16.0495 15.0496,9.5814 23,9.5814 c 7.9504,0 14.4186,6.4682 14.4186,14.4186 0,7.9504 -6.4682,14.4186 -14.4186,14.4186 z"
     style="stroke:#ffffff;stroke-opacity:1;fill:none;stroke-width:4.1;stroke-miterlimit:4;stroke-dasharray:none" /><path
     d="m 41.1996,36.2701 c -2.3177,2.0827 -4.2292,2.8623 -4.718,3.0359 -0.2803,0.0995 -0.4465,0.0338 -0.5031,-0.0891 0.325,-0.2805 2.5176,-2.4482 3.7678,-4.3015 C 41.8438,31.8062 43,28.0305 43,24 43,12.9543 34.0457,4 23,4 11.9543,4 3,12.9543 3,24 c 0,11.0457 8.9543,20 20,20 4.0305,0 7.7753,-1.2026 10.9155,-3.2537 l 17.0283,18.2685 c 1.1622,1.1622 2.9944,1.3178 4.3236,0.3511 1.0001,-0.7274 1.4528,-0.8358 3.0986,-3.0986 0.9667,-1.3292 0.811,-3.1614 -0.3511,-4.3236 L 41.1996,36.2701 Z M 23,38.4186 C 15.0496,38.4186 8.5814,31.9505 8.5814,24 8.5814,16.0495 15.0496,9.5814 23,9.5814 c 7.9504,0 14.4186,6.4682 14.4186,14.4186 0,7.9504 -6.4682,14.4186 -14.4186,14.4186 z"
     id="path14"
     inkscape:connector-curvature="0" /></svg>