<?xml version="1.0" encoding="UTF-8" standalone="no"?>
<!-- Generator: Adobe Illustrator 17.1.0, SVG Export Plug-In . SVG Version: 6.00 Build 0)  -->

<svg
   xmlns:dc="http://purl.org/dc/elements/1.1/"
   xmlns:cc="http://creativecommons.org/ns#"
   xmlns:rdf="http://www.w3.org/1999/02/22-rdf-syntax-ns#"
   xmlns:svg="http://www.w3.org/2000/svg"
   xmlns="http://www.w3.org/2000/svg"
   xmlns:sodipodi="http://sodipodi.sourceforge.net/DTD/sodipodi-0.dtd"
   xmlns:inkscape="http://www.inkscape.org/namespaces/inkscape"
   version="1.2"
   x="0px"
   y="0px"
   width="64px"
   height="64px"
   viewBox="0 0 64 64"
   xml:space="preserve"
   id="svg2"
   inkscape:version="0.91 r13725"
   sodipodi:docname="updatefrequency.svg"
   inkscape:export-filename="/usr/people/brouwers/Documents/brouwers/KDC/ZoekenEnFilteren/icons/updatefrequency.png"
   inkscape:export-xdpi="45"
   inkscape:export-ydpi="45"><metadata
     id="metadata22"><rdf:RDF><cc:Work
         rdf:about=""><dc:format>image/svg+xml</dc:format><dc:type
           rdf:resource="http://purl.org/dc/dcmitype/StillImage" /><dc:title /></cc:Work></rdf:RDF></metadata><defs
     id="defs20" /><sodipodi:namedview
     pagecolor="#ffffff"
     bordercolor="#666666"
     borderopacity="1"
     objecttolerance="10"
     gridtolerance="10"
     guidetolerance="10"
     inkscape:pageopacity="0"
     inkscape:pageshadow="2"
     inkscape:window-width="1920"
     inkscape:window-height="1014"
     id="namedview18"
     showgrid="false"
     inkscape:zoom="5.2149125"
     inkscape:cx="-61.978064"
     inkscape:cy="17.691867"
     inkscape:window-x="0"
     inkscape:window-y="27"
     inkscape:window-maximized="1"
     inkscape:current-layer="svg2" /><g
     id="Box"
     transform="matrix(0.97902649,0,0,0.97902649,1.3423044,1.1505466)"><rect
       width="64"
       height="64"
       id="rect5"
       x="0"
       y="0"
       style="fill:none" /></g><g
     id="g4188"
     transform="matrix(0.85533632,0,0,0.85533632,-7.6004893,13.748929)"><g
       transform="translate(13.559322,-9.7627119)"
       id="g4177"><g
         id="_x36_4px_Boxes"><rect
           style="fill:none"
           y="0"
           x="0"
           width="64"
           height="64"
           id="rect4162" /></g><g
         id="Production"><g
           id="g4165" /></g></g></g><g
     id="g4210"
     transform="matrix(1.8459157,0,0,1.8459157,107.39329,-46.408625)"><g
       id="g4246"
       transform="translate(3.5254237,1.3559322)"><g
         style="stroke:#ffffff;stroke-width:4.92958498;stroke-miterlimit:4;stroke-dasharray:none;stroke-opacity:1"
         id="g4236"
         transform="matrix(0.58524194,0,0,0.58524194,-61.98901,23.172869)"><path
           style="stroke:#ffffff;stroke-width:4.92958498;stroke-miterlimit:4;stroke-dasharray:none;stroke-opacity:1"
           inkscape:transform-center-y="-5.1814079"
           inkscape:transform-center-x="-20.060588"
           inkscape:connector-curvature="0"
           id="path4238"
           d="m 38.660684,13.064856 -0.753824,1.614926 c -0.41261,0.883942 -0.220316,1.66355 0.365933,2.074156 4.736478,3.316705 7.549032,8.622536 7.838587,14.213243 l -3.368133,-2.093967 c -0.632665,-0.393206 -1.447727,-0.289745 -1.943866,0.246866 -0.496761,0.536763 -0.534852,1.35671 -0.09147,1.95423 l 6.613398,8.926849 c 0.283339,0.382661 0.724343,0.61787 1.196801,0.638879 0.472457,0.02101 0.924499,-0.174543 1.226625,-0.53123 l 7.054261,-8.319815 c 0.229128,-0.269808 0.347912,-0.601828 0.356481,-0.938173 0.0092,-0.357699 -0.106563,-0.720939 -0.347869,-1.01964 -0.467588,-0.579465 -1.275446,-0.755048 -1.926897,-0.418839 l -3.736349,1.913743 C 50.95212,23.89015 47.23435,16.775351 40.872845,12.457651 40.10653,11.9375 39.052527,12.225406 38.660684,13.064856 Z" /><g
           style="stroke:#ffffff;stroke-width:4.92958498;stroke-miterlimit:4;stroke-dasharray:none;stroke-opacity:1"
           id="g4240"><path
             style="stroke:#ffffff;stroke-width:4.92958498;stroke-miterlimit:4;stroke-dasharray:none;stroke-opacity:1"
             d="m 9.207,27.7916 c 0.986,-5.6041 4.5059,-10.3345 9.3285,-12.9876 l -0.5063,4.0104 c -0.0914,0.7273 0.3516,1.4253 1.0566,1.6649 0.3635,0.1237 0.7444,0.1074 1.077,-0.0244 0.3129,-0.1238 0.5837,-0.3496 0.7582,-0.6577 L 26.3039,10.31 C 26.5347,9.9035 26.5628,9.4118 26.3804,8.9754 26.1981,8.5391 25.8254,8.206 25.3686,8.0717 L 14.7107,4.9357 c -0.7136,-0.2107 -1.4704,0.1074 -1.8033,0.7586 -0.3331,0.6505 -0.1496,1.4514 0.4374,1.91 l 3.2661,2.5359 c -6.475,3.3669 -11.1967,9.657 -12.3967,17.1125 -0.1472,0.9146 0.5596,1.7478 1.486,1.7478 l 1.7822,0 c 0.9754,-10e-5 1.6006,-0.504 1.7246,-1.2089 z"
             id="path4242"
             inkscape:connector-curvature="0" /></g><path
           style="stroke:#ffffff;stroke-width:4.92958498;stroke-miterlimit:4;stroke-dasharray:none;stroke-opacity:1"
           d="m 36.31582,51.376497 -0.910098,-1.532304 c -0.49815,-0.838717 -1.250693,-1.118796 -1.920128,-0.86553 -5.407971,2.046605 -11.376409,1.383232 -16.159591,-1.525548 l 3.627005,-1.604321 c 0.681191,-0.301422 1.054644,-1.033244 0.890562,-1.745411 -0.163858,-0.712767 -0.820011,-1.205949 -1.563463,-1.175996 L 9.179061,43.366059 c -0.4757754,0.01868 -0.9184755,0.250678 -1.2018732,0.629286 -0.2833982,0.378606 -0.376334,0.862285 -0.2516932,1.312807 l 2.9032834,10.514413 c 0.09395,0.341277 0.301443,0.626396 0.574571,0.82287 0.290421,0.209018 0.655786,0.317889 1.038509,0.286671 0.742161,-0.06012 1.342158,-0.628865 1.431141,-1.356536 l 0.522389,-4.165313 c 6.253275,4.028227 14.226354,4.962144 21.37658,2.136272 0.861354,-0.340388 1.216928,-1.373529 0.743852,-2.170032 z"
           id="path4244"
           inkscape:connector-curvature="0"
           inkscape:transform-center-x="5.2617416"
           inkscape:transform-center-y="18.330918" /></g><g
         transform="matrix(0.58524194,0,0,0.58524194,-61.98901,23.172869)"
         id="g4226"><path
           d="m 38.660684,13.064856 -0.753824,1.614926 c -0.41261,0.883942 -0.220316,1.66355 0.365933,2.074156 4.736478,3.316705 7.549032,8.622536 7.838587,14.213243 l -3.368133,-2.093967 c -0.632665,-0.393206 -1.447727,-0.289745 -1.943866,0.246866 -0.496761,0.536763 -0.534852,1.35671 -0.09147,1.95423 l 6.613398,8.926849 c 0.283339,0.382661 0.724343,0.61787 1.196801,0.638879 0.472457,0.02101 0.924499,-0.174543 1.226625,-0.53123 l 7.054261,-8.319815 c 0.229128,-0.269808 0.347912,-0.601828 0.356481,-0.938173 0.0092,-0.357699 -0.106563,-0.720939 -0.347869,-1.01964 -0.467588,-0.579465 -1.275446,-0.755048 -1.926897,-0.418839 l -3.736349,1.913743 C 50.95212,23.89015 47.23435,16.775351 40.872845,12.457651 40.10653,11.9375 39.052527,12.225406 38.660684,13.064856 Z"
           id="path4228"
           inkscape:connector-curvature="0"
           inkscape:transform-center-x="-20.060588"
           inkscape:transform-center-y="-5.1814079" /><g
           id="g4230"><path
             inkscape:connector-curvature="0"
             id="path4232"
             d="m 9.207,27.7916 c 0.986,-5.6041 4.5059,-10.3345 9.3285,-12.9876 l -0.5063,4.0104 c -0.0914,0.7273 0.3516,1.4253 1.0566,1.6649 0.3635,0.1237 0.7444,0.1074 1.077,-0.0244 0.3129,-0.1238 0.5837,-0.3496 0.7582,-0.6577 L 26.3039,10.31 C 26.5347,9.9035 26.5628,9.4118 26.3804,8.9754 26.1981,8.5391 25.8254,8.206 25.3686,8.0717 L 14.7107,4.9357 c -0.7136,-0.2107 -1.4704,0.1074 -1.8033,0.7586 -0.3331,0.6505 -0.1496,1.4514 0.4374,1.91 l 3.2661,2.5359 c -6.475,3.3669 -11.1967,9.657 -12.3967,17.1125 -0.1472,0.9146 0.5596,1.7478 1.486,1.7478 l 1.7822,0 c 0.9754,-10e-5 1.6006,-0.504 1.7246,-1.2089 z" /></g><path
           inkscape:transform-center-y="18.330918"
           inkscape:transform-center-x="5.2617416"
           inkscape:connector-curvature="0"
           id="path4234"
           d="m 36.31582,51.376497 -0.910098,-1.532304 c -0.49815,-0.838717 -1.250693,-1.118796 -1.920128,-0.86553 -5.407971,2.046605 -11.376409,1.383232 -16.159591,-1.525548 l 3.627005,-1.604321 c 0.681191,-0.301422 1.054644,-1.033244 0.890562,-1.745411 -0.163858,-0.712767 -0.820011,-1.205949 -1.563463,-1.175996 L 9.179061,43.366059 c -0.4757754,0.01868 -0.9184755,0.250678 -1.2018732,0.629286 -0.2833982,0.378606 -0.376334,0.862285 -0.2516932,1.312807 l 2.9032834,10.514413 c 0.09395,0.341277 0.301443,0.626396 0.574571,0.82287 0.290421,0.209018 0.655786,0.317889 1.038509,0.286671 0.742161,-0.06012 1.342158,-0.628865 1.431141,-1.356536 l 0.522389,-4.165313 c 6.253275,4.028227 14.226354,4.962144 21.37658,2.136272 0.861354,-0.340388 1.216928,-1.373529 0.743852,-2.170032 z" /></g></g></g></svg>