<?xml version="1.0" encoding="UTF-8" standalone="no"?>
<!-- Generator: Adobe Illustrator 17.1.0, SVG Export Plug-In . SVG Version: 6.00 Build 0)  -->

<svg
   xmlns:dc="http://purl.org/dc/elements/1.1/"
   xmlns:cc="http://creativecommons.org/ns#"
   xmlns:rdf="http://www.w3.org/1999/02/22-rdf-syntax-ns#"
   xmlns:svg="http://www.w3.org/2000/svg"
   xmlns="http://www.w3.org/2000/svg"
   xmlns:sodipodi="http://sodipodi.sourceforge.net/DTD/sodipodi-0.dtd"
   xmlns:inkscape="http://www.inkscape.org/namespaces/inkscape"
   version="1.2"
   x="0px"
   y="0px"
   width="64px"
   height="64px"
   viewBox="0 0 64 64"
   xml:space="preserve"
   id="svg2"
   inkscape:version="0.91 r13725"
   sodipodi:docname="wereld.svg"
   inkscape:export-filename="/usr/people/brouwers/Documents/brouwers/KDC/ZoekenEnFilteren/icons/wereld.png"
   inkscape:export-xdpi="56.25"
   inkscape:export-ydpi="56.25"><metadata
     id="metadata18"><rdf:RDF><cc:Work
         rdf:about=""><dc:format>image/svg+xml</dc:format><dc:type
           rdf:resource="http://purl.org/dc/dcmitype/StillImage" /><dc:title /></cc:Work></rdf:RDF></metadata><defs
     id="defs16" /><sodipodi:namedview
     pagecolor="#ffffff"
     bordercolor="#666666"
     borderopacity="1"
     objecttolerance="10"
     gridtolerance="10"
     guidetolerance="10"
     inkscape:pageopacity="0"
     inkscape:pageshadow="2"
     inkscape:window-width="1613"
     inkscape:window-height="1013"
     id="namedview14"
     showgrid="false"
     inkscape:zoom="5.2149125"
     inkscape:cx="-33.613422"
     inkscape:cy="10.429506"
     inkscape:window-x="0"
     inkscape:window-y="27"
     inkscape:window-maximized="0"
     inkscape:current-layer="Icon" /><g
     id="Box"><rect
       fill="none"
       width="64"
       height="64"
       id="rect5" /></g><g
     id="Icon"><g
       id="g8"
       transform="matrix(1.4554698,0,0,1.4554698,-20.718703,-7.982233)"><path
         style="opacity:1"
         d="M 36,7 C 24.785677,7.2135631 16.356895,15.325694 16.027344,26.982422 16.027152,38.04963 24.93604,47.021478 35.925781,47.021484 47.05785,47.019078 56.133564,37.390721 56,27 56,15.9543 47.0457,7 36,7 Z m -0.75,3.28125 0.15625,0.251953 c 0,0 -0.385144,2.026266 -1.027344,2.197266 -0.6422,0.1711 -2.492187,-0.894532 -2.492187,-0.894531 l 0.236328,-1.121094 C 33.133947,10.474044 34.1779,10.32895 35.25,10.28125 Z m 2.707031,0.08594 c 7.3121,0.855999 13.191066,6.433003 14.509766,13.595703 l -1.873047,2.496093 -2.162109,1.082032 -2.16211,-2.16211 -1.158203,-2.085937 c 0,0 1.495731,-1.495663 1.082031,-2.289063 -0.4138,-0.7935 -2.75089,0.497535 -3.21289,-0.197265 -0.4621,-0.6953 -0.05078,-3.06836 -0.05078,-3.06836 L 40.03125,16.544922 c 0,0 -0.904025,-0.01864 -0.828125,0.664062 0.0852,0.767 2.191784,1.983319 2.021484,2.324219 -0.1571,0.3144 -0.68164,0.08594 -0.68164,0.08594 l -0.800781,1.40625 -1.669922,-0.376953 c 0,0 1.269228,-0.482113 1.423828,-0.945313 0.1545,-0.4633 -1.875,-2.128906 -1.875,-2.128906 l -1.13086,0.255859 -0.511718,2.044922 -1.363282,1.193359 -1.787109,-0.01367 0.158203,-0.992188 -0.654297,-0.01758 0.851563,-2.208984 1.755859,0.146484 c 0,0 0.648031,-1.6928 0.519531,-2.25 -0.2494,-1.0811 -1.376953,-1.20456 -1.376953,-1.63086 0,-0.426 1.2158,-0.419125 1.8125,-1.015624 0.3701,-0.370201 1.3618,-1.735552 2.0625,-2.71875 z m -9.09375,1.546874 c -0.6497,1.664 -1.548959,3.429438 -2.505859,4.273438 -2.0743,1.8297 -3.986508,2.2621 -4.59961,2.3125 1.662301,-2.8353 4.135169,-5.138038 7.105469,-6.585938 z m 8.953125,10.458985 2.564453,1.501953 3.417969,0.650391 0.947266,1.296875 1.523437,2.15039 2.16211,1.126953 2.162109,-1.84375 c 0,0 -0.212253,2.584719 -1.064453,4.199219 -0.8522,1.6144 -3.064453,2.826172 -3.064453,2.826172 0,0 -0.208828,1.518869 -0.923828,2.792969 -0.277,0.4938 -1.037653,0.756087 -1.376954,1.242187 -0.612299,0.8777 -0.437718,2.422225 -1.136718,2.765625 -1.249,0.6134 -2.701969,0.898972 -3.042969,0.576172 -0.4769,-0.4519 -1.53125,-2.382284 -1.53125,-3.021484 l 0,-4.609375 c 0,-0.827 -1.105469,-2.785156 -1.105469,-2.785156 0,0 -2.613287,-0.02539 -3.617187,-0.02539 -1.0039,0 -2.53125,-1.441406 -2.53125,-1.441406 0,0 -0.8494,-2.81296 0,-4.56836 0.8495,-1.7554 2.138672,-1.933593 2.138672,-1.933593 l 4.478515,-0.900391 z m -18.15625,8.746094 c 0,0 6.508938,1.354474 6.644532,3.117187 0.198681,2.582874 1.355468,7.458984 1.355468,7.458984 0,10e-7 -2.643009,-1.492088 -4.8125,-4.068359 -2.169492,-2.576272 -3.1875,-6.507812 -3.1875,-6.507812 z m 31.25586,3.478515 c -0.8342,1.631 -1.92035,3.110606 -3.21875,4.378906 l -0.654297,-1.441406 1.476562,-2.677734 2.396485,-0.259766 z"
         id="path10"
         inkscape:connector-curvature="0" /></g></g></svg>